<svg width="24" height="24" viewBox="0 0 24 24" fill="none" xmlns="http://www.w3.org/2000/svg">
<path d="M6.909 20.8882L10.7342 21.8443C11.1483 21.9478 11.574 21.9996 11.9998 21.9996C12.4256 21.9996 12.8514 21.9478 13.2654 21.8443L17.0916 20.8882C18.9646 20.4194 20.4197 18.9644 20.8875 17.0908L21.8436 13.2656C22.0516 12.4375 22.0516 11.5625 21.8436 10.7343L20.8875 6.90912C20.4197 5.03562 18.9646 3.58052 17.0916 3.11172H17.0906L13.2654 2.15562C12.4373 1.94862 11.5623 1.94862 10.7341 2.15562L6.908 3.11182C5.035 3.58062 3.5799 5.03562 3.1121 6.90922L2.156 10.7344C1.948 11.5625 1.948 12.4375 2.156 13.2657L3.1121 17.0909C3.5799 18.9644 5.035 20.4194 6.909 20.8882ZM4.0955 11.2197L5.0516 7.39452C5.3407 6.23872 6.2381 5.34132 7.3934 5.05222L11.2186 4.09612C11.4744 4.03222 11.7371 4.00052 11.9998 4.00052C12.2625 4.00052 12.5252 4.03222 12.7811 4.09622L16.6053 5.05232C17.7616 5.34142 18.659 6.23882 18.9481 7.39462L19.9042 11.2198C20.0312 11.7301 20.0312 12.2701 19.9042 12.7803L18.9481 16.6055C18.659 17.7613 17.7616 18.6587 16.6063 18.9478L12.7811 19.9039C12.2694 20.0318 11.7303 20.0318 11.2186 19.9039L7.3944 18.9478C6.2381 18.6587 5.3407 17.7613 5.0516 16.6055L4.0955 12.7803C3.9686 12.27 3.9686 11.73 4.0955 11.2197Z" fill="url(#paint0_linear_110_2355)"/>
<path d="M8.41421 13.4142L10.5858 15.5858C11.3668 16.3668 12.6332 16.3668 13.4142 15.5858L15.5858 13.4142C16.3668 12.6332 16.3668 11.3668 15.5858 10.5858L13.4142 8.41421C12.6332 7.63317 11.3668 7.63316 10.5858 8.41421L8.41421 10.5858C7.63317 11.3668 7.63316 12.6332 8.41421 13.4142Z" fill="url(#paint1_linear_110_2355)"/>
<defs>
<linearGradient id="paint0_linear_110_2355" x1="11.9998" y1="2.00036" x2="0.999006" y2="33.1089" gradientUnits="userSpaceOnUse">
<stop stop-color="#00B3FF"/>
<stop offset="1" stop-color="#2864FE"/>
</linearGradient>
<linearGradient id="paint1_linear_110_2355" x1="12" y1="7" x2="6.49932" y2="22.5548" gradientUnits="userSpaceOnUse">
<stop stop-color="#00B3FF"/>
<stop offset="1" stop-color="#2864FE"/>
</linearGradient>
</defs>
</svg>
