<svg width="24" height="24" viewBox="0 0 24 24" fill="none" xmlns="http://www.w3.org/2000/svg">
<path d="M6.909 20.8882L10.7342 21.8443C11.1483 21.9478 11.574 21.9996 11.9998 21.9996C12.4256 21.9996 12.8514 21.9478 13.2654 21.8443L17.0916 20.8882C18.9646 20.4194 20.4197 18.9644 20.8875 17.0908L21.8436 13.2656C22.0516 12.4375 22.0516 11.5625 21.8436 10.7343L20.8875 6.90909C20.4197 5.03559 18.9646 3.58049 17.0916 3.11169H17.0906L13.2654 2.15559C12.4373 1.94859 11.5623 1.94859 10.7341 2.15559L6.908 3.11179C5.035 3.58059 3.5799 5.03559 3.1121 6.90919L2.156 10.7344C1.948 11.5625 1.948 12.4375 2.156 13.2657L3.1121 17.0909C3.5799 18.9644 5.035 20.4194 6.909 20.8882ZM4.0955 11.2197L5.0516 7.39449C5.3407 6.23869 6.2381 5.34129 7.3934 5.05219L11.2186 4.09609C11.4744 4.03219 11.7371 4.00049 11.9998 4.00049C12.2625 4.00049 12.5252 4.03219 12.7811 4.09619L16.6053 5.05229C17.7616 5.34139 18.659 6.23879 18.9481 7.39459L19.9042 11.2198C20.0312 11.7301 20.0312 12.2701 19.9042 12.7803L18.9481 16.6055C18.659 17.7613 17.7616 18.6587 16.6063 18.9478L12.7811 19.9039C12.2694 20.0318 11.7303 20.0318 11.2186 19.9039L7.3944 18.9478C6.2381 18.6587 5.3407 17.7613 5.0516 16.6055L4.0955 12.7803C3.9686 12.27 3.9686 11.73 4.0955 11.2197Z" fill="#2F323C"/>
<path d="M7.5 9.44333C7.5 8.6462 8.1462 8 8.94333 8C9.52783 8 10.0546 8.35252 10.2776 8.89283L11.9349 12.9095C11.9457 12.9359 11.9715 12.9531 12 12.9531C12.0285 12.9531 12.0543 12.9359 12.0651 12.9095L13.7224 8.89283C13.9454 8.35252 14.4722 8 15.0567 8C15.8538 8 16.5 8.6462 16.5 9.44333V15.0528C16.5 15.5759 16.0759 16 15.5528 16C15.0297 16 14.6057 15.5759 14.6057 15.0528V11.0859H14.5389L12.8286 15.3874C12.6938 15.7266 12.3657 15.9492 12.0006 15.9492C11.635 15.9492 11.3064 15.7258 11.172 15.3858L9.46114 11.0586H9.39432V15.0528C9.39432 15.5759 8.97026 16 8.44716 16C7.92406 16 7.5 15.5759 7.5 15.0528V9.44333Z" fill="#2F323C"/>
</svg>
