<svg width="20" height="20" viewBox="0 0 20 20" fill="none" xmlns="http://www.w3.org/2000/svg">
<path d="M4.909 18.8882L8.7342 19.8443C9.1483 19.9478 9.574 19.9996 9.9998 19.9996C10.4256 19.9996 10.8514 19.9478 11.2654 19.8443L15.0916 18.8882C16.9646 18.4194 18.4197 16.9644 18.8875 15.0908L19.8436 11.2656C20.0516 10.4375 20.0516 9.56249 19.8436 8.73429L18.8875 4.90909C18.4197 3.03559 16.9646 1.58049 15.0916 1.11169H15.0906L11.2654 0.155586C10.4373 -0.0514143 9.5623 -0.0514143 8.7341 0.155586L4.908 1.11179C3.035 1.58059 1.5799 3.03559 1.1121 4.90919L0.156 8.73439C-0.052 9.56249 -0.052 10.4375 0.156 11.2657L1.1121 15.0909C1.5799 16.9644 3.035 18.4194 4.909 18.8882ZM2.0955 9.21969L3.0516 5.39449C3.3407 4.23869 4.2381 3.34129 5.3934 3.05219L9.2186 2.09609C9.4744 2.03219 9.7371 2.00049 9.9998 2.00049C10.2625 2.00049 10.5252 2.03219 10.7811 2.09619L14.6053 3.05229C15.7616 3.34139 16.659 4.23879 16.9481 5.39459L17.9042 9.21979C18.0312 9.73009 18.0312 10.2701 17.9042 10.7803L16.9481 14.6055C16.659 15.7613 15.7616 16.6587 14.6063 16.9478L10.7811 17.9039C10.2694 18.0318 9.7303 18.0318 9.2186 17.9039L5.3944 16.9478C4.2381 16.6587 3.3407 15.7613 3.0516 14.6055L2.0955 10.7803C1.9686 10.27 1.9686 9.72999 2.0955 9.21969Z" fill="white"/>
<path d="M5.37454 11.0244C5.55604 12.1644 6.49864 13 7.60314 13H12.3969C13.5014 13 14.444 12.1644 14.6255 11.0244L14.9845 8.7704C15.1378 7.8082 14.1191 7.1189 13.3434 7.66L12.8432 8.009C12.4633 8.274 11.9501 8.1666 11.6968 7.7691L10.886 6.4962C10.4646 5.8346 9.53554 5.8346 9.11404 6.4962L8.30314 7.769C8.04994 8.1665 7.53664 8.2739 7.15674 8.0089L6.65654 7.66C5.88094 7.1189 4.86224 7.8081 5.01544 8.7704L5.37454 11.0244Z" fill="white"/>
</svg>
