<svg width="20" height="20" viewBox="0 0 20 20" fill="none" xmlns="http://www.w3.org/2000/svg">
<path d="M4.909 18.8882L8.7342 19.8443C9.1483 19.9478 9.574 19.9996 9.9998 19.9996C10.4256 19.9996 10.8514 19.9478 11.2654 19.8443L15.0916 18.8882C16.9646 18.4194 18.4197 16.9644 18.8875 15.0908L19.8436 11.2656C20.0516 10.4375 20.0516 9.56249 19.8436 8.73429L18.8875 4.90909C18.4197 3.03559 16.9646 1.58049 15.0916 1.11169H15.0906L11.2654 0.155586C10.4373 -0.0514143 9.5623 -0.0514143 8.7341 0.155586L4.908 1.11179C3.035 1.58059 1.5799 3.03559 1.1121 4.90919L0.156 8.73439C-0.052 9.56249 -0.052 10.4375 0.156 11.2657L1.1121 15.0909C1.5799 16.9644 3.035 18.4194 4.909 18.8882ZM2.0955 9.21969L3.0516 5.39449C3.3407 4.23869 4.2381 3.34129 5.3934 3.05219L9.2186 2.09609C9.4744 2.03219 9.7371 2.00049 9.9998 2.00049C10.2625 2.00049 10.5252 2.03219 10.7811 2.09619L14.6053 3.05229C15.7616 3.34139 16.659 4.23879 16.9481 5.39459L17.9042 9.21979C18.0312 9.73009 18.0312 10.2701 17.9042 10.7803L16.9481 14.6055C16.659 15.7613 15.7616 16.6587 14.6063 16.9478L10.7811 17.9039C10.2694 18.0318 9.7303 18.0318 9.2186 17.9039L5.3944 16.9478C4.2381 16.6587 3.3407 15.7613 3.0516 14.6055L2.0955 10.7803C1.9686 10.27 1.9686 9.72999 2.0955 9.21969Z" fill="url(#paint0_linear_113_178)"/>
<path d="M9.88407 4.60096C9.92696 4.49267 10.073 4.49267 10.1159 4.60096L11.4126 7.87479C11.4307 7.92045 11.4716 7.95164 11.5185 7.95559L14.8843 8.23894C14.9956 8.24831 15.0408 8.39421 14.9559 8.47051L12.3916 10.7772C12.3558 10.8094 12.3402 10.8598 12.3511 10.9079L13.1346 14.3569C13.1605 14.471 13.0423 14.5611 12.947 14.5L10.0655 12.6518C10.0253 12.626 9.97473 12.626 9.93455 12.6518L7.05299 14.5C6.95768 14.5611 6.83949 14.471 6.86541 14.3569L7.64886 10.9079C7.65978 10.8598 7.64417 10.8094 7.60841 10.7772L5.04405 8.47051C4.95923 8.39421 5.00438 8.24831 5.11571 8.23894L8.48146 7.95559C8.5284 7.95164 8.56928 7.92045 8.58736 7.87479L9.88407 4.60096Z" fill="url(#paint1_linear_113_178)"/>
<defs>
<linearGradient id="paint0_linear_113_178" x1="9.9998" y1="0.000333693" x2="-3.02155" y2="36.8227" gradientUnits="userSpaceOnUse">
<stop stop-color="#FF7A00"/>
<stop offset="1" stop-color="#E85618"/>
</linearGradient>
<linearGradient id="paint1_linear_113_178" x1="10" y1="5" x2="3.48899" y2="23.4118" gradientUnits="userSpaceOnUse">
<stop stop-color="#FF7A00"/>
<stop offset="1" stop-color="#E85618"/>
</linearGradient>
</defs>
</svg>
