<svg width="24" height="24" viewBox="0 0 24 24" fill="none" xmlns="http://www.w3.org/2000/svg">
<path d="M6.909 20.8882L10.7342 21.8443C11.1483 21.9478 11.574 21.9996 11.9998 21.9996C12.4256 21.9996 12.8514 21.9478 13.2654 21.8443L17.0916 20.8882C18.9646 20.4194 20.4197 18.9644 20.8875 17.0908L21.8436 13.2656C22.0516 12.4375 22.0516 11.5625 21.8436 10.7343L20.8875 6.90909C20.4197 5.03559 18.9646 3.58049 17.0916 3.11169H17.0906L13.2654 2.15559C12.4373 1.94859 11.5623 1.94859 10.7341 2.15559L6.908 3.11179C5.035 3.58059 3.5799 5.03559 3.1121 6.90919L2.156 10.7344C1.948 11.5625 1.948 12.4375 2.156 13.2657L3.1121 17.0909C3.5799 18.9644 5.035 20.4194 6.909 20.8882ZM4.0955 11.2197L5.0516 7.39449C5.3407 6.23869 6.2381 5.34129 7.3934 5.05219L11.2186 4.09609C11.4744 4.03219 11.7371 4.00049 11.9998 4.00049C12.2625 4.00049 12.5252 4.03219 12.7811 4.09619L16.6053 5.05229C17.7616 5.34139 18.659 6.23879 18.9481 7.39459L19.9042 11.2198C20.0312 11.7301 20.0312 12.2701 19.9042 12.7803L18.9481 16.6055C18.659 17.7613 17.7616 18.6587 16.6063 18.9478L12.7811 19.9039C12.2694 20.0318 11.7303 20.0318 11.2186 19.9039L7.3944 18.9478C6.2381 18.6587 5.3407 17.7613 5.0516 16.6055L4.0955 12.7803C3.9686 12.27 3.9686 11.73 4.0955 11.2197Z" fill="url(#paint0_linear_114_136)"/>
<path d="M6.909 20.8882L10.7342 21.8443C11.1483 21.9478 11.574 21.9996 11.9998 21.9996C12.4256 21.9996 12.8514 21.9478 13.2654 21.8443L17.0916 20.8882C18.9646 20.4194 20.4197 18.9644 20.8875 17.0908L21.8436 13.2656C22.0516 12.4375 22.0516 11.5625 21.8436 10.7343L20.8875 6.90909C20.4197 5.03559 18.9646 3.58049 17.0916 3.11169H17.0906L13.2654 2.15559C12.4373 1.94859 11.5623 1.94859 10.7341 2.15559L6.908 3.11179C5.035 3.58059 3.5799 5.03559 3.1121 6.90919L2.156 10.7344C1.948 11.5625 1.948 12.4375 2.156 13.2657L3.1121 17.0909C3.5799 18.9644 5.035 20.4194 6.909 20.8882ZM4.0955 11.2197L5.0516 7.39449C5.3407 6.23869 6.2381 5.34129 7.3934 5.05219L11.2186 4.09609C11.4744 4.03219 11.7371 4.00049 11.9998 4.00049C12.2625 4.00049 12.5252 4.03219 12.7811 4.09619L16.6053 5.05229C17.7616 5.34139 18.659 6.23879 18.9481 7.39459L19.9042 11.2198C20.0312 11.7301 20.0312 12.2701 19.9042 12.7803L18.9481 16.6055C18.659 17.7613 17.7616 18.6587 16.6063 18.9478L12.7811 19.9039C12.2694 20.0318 11.7303 20.0318 11.2186 19.9039L7.3944 18.9478C6.2381 18.6587 5.3407 17.7613 5.0516 16.6055L4.0955 12.7803C3.9686 12.27 3.9686 11.73 4.0955 11.2197Z" fill="url(#paint1_linear_114_136)"/>
<path d="M7.37454 13.0244C7.55604 14.1644 8.49864 15 9.60314 15H14.3969C15.5014 15 16.444 14.1644 16.6255 13.0244L16.9845 10.7704C17.1378 9.8082 16.1191 9.1189 15.3434 9.66L14.8432 10.009C14.4633 10.274 13.9501 10.1666 13.6968 9.7691L12.886 8.4962C12.4646 7.8346 11.5355 7.8346 11.114 8.4962L10.3031 9.769C10.0499 10.1665 9.53664 10.2739 9.15674 10.0089L8.65654 9.66C7.88094 9.1189 6.86224 9.8081 7.01544 10.7704L7.37454 13.0244Z" fill="url(#paint2_linear_114_136)"/>
<defs>
<linearGradient id="paint0_linear_114_136" x1="11.9998" y1="2.00033" x2="6.75289" y2="21.6269" gradientUnits="userSpaceOnUse">
<stop stop-color="#E84A18"/>
<stop offset="1" stop-color="#E85618"/>
</linearGradient>
<linearGradient id="paint1_linear_114_136" x1="11.9998" y1="2.00033" x2="-1.02155" y2="38.8227" gradientUnits="userSpaceOnUse">
<stop stop-color="#FF7A00"/>
<stop offset="1" stop-color="#E85618"/>
</linearGradient>
<linearGradient id="paint2_linear_114_136" x1="12" y1="8" x2="8.61788" y2="21.6628" gradientUnits="userSpaceOnUse">
<stop stop-color="#FF7A00"/>
<stop offset="1" stop-color="#E85618"/>
</linearGradient>
</defs>
</svg>
