<svg width="22" height="24" viewBox="0 0 22 24" fill="none" xmlns="http://www.w3.org/2000/svg">
<path d="M0.585188 16.3808C0.532911 16.2362 0.714476 16.1235 0.816782 16.2379C2.072 17.6458 6.06081 21.5167 11.3386 20.6662C13.7551 20.2771 16.0042 19.0756 17.3791 16.9815C18.12 15.8535 18.6602 14.5739 18.5236 13.199C18.4393 12.3514 18.188 11.52 17.785 10.7719C17.0531 9.41198 15.7214 8.18798 14.2751 7.6549C14.2751 7.6549 12.4673 6.98884 11.8568 8.27355C11.2464 9.55826 12.3734 10.3903 12.8192 10.5331C13.193 10.6527 14.0626 10.555 14.5269 9.86122C14.6135 9.73229 14.813 9.7849 14.8243 9.94043C14.8861 10.7684 14.7686 12.3537 13.2177 13.4349C11.0345 14.9573 9.08614 13.8871 8.54595 13.554C6.71287 12.4237 6.09172 9.70396 7.48466 7.99082C7.53469 7.92895 7.47173 7.83991 7.39809 7.86824C6.79943 8.09836 5.3694 8.7968 4.41379 10.4828C4.33735 10.6175 4.13554 10.573 4.11868 10.418C4.013 9.43568 4.1125 7.0877 6.90174 4.99065C10.5364 2.25819 15.4595 4.20144 15.4707 4.20549C15.4814 4.20896 19.441 5.44799 21.387 9.79531C23.3353 14.1484 20.1425 18.5963 18.7108 19.9996C17.2785 21.4028 14.274 24.0196 9.3672 23.3056C4.85281 22.6499 1.50988 18.9502 0.585188 16.3808Z" fill="white"/>
<path d="M17.4842 12.5341C17.5567 12.419 17.7304 12.4583 17.7473 12.5936C17.8985 13.8032 17.9255 17.4769 13.1014 19.1918C8.78316 20.7268 2.89157 18.7535 0.866246 14.423C0.294007 13.1996 0.0208161 11.8426 0.00114186 10.4925C-0.0286505 8.41051 0.523914 6.61701 1.73304 4.9507C2.99444 3.21328 4.70328 1.84704 6.6218 0.923694C10.171 -0.784243 14.9412 -0.0412846 17.9457 2.47321C19.2279 3.54631 20.3336 4.99869 20.9913 6.54473C21.0543 6.69275 20.8716 6.8211 20.7586 6.70778C19.5332 5.47857 16.1267 2.49344 11.9507 2.49344C6.69207 2.49344 4.27382 6.44182 4.27382 6.44182C4.27382 6.44182 1.40982 10.7232 5.35366 14.2674C9.17552 17.7012 15.3319 15.9557 17.4842 12.5341Z" fill="white"/>
</svg>
