<svg width="22" height="16" viewBox="0 0 22 16" fill="none" xmlns="http://www.w3.org/2000/svg">
<path d="M18.2682 1.32796C16.9382 0.707955 15.4982 0.257956 13.9982 -0.00204446C13.985 -0.00246506 13.9719 3.02307e-06 13.9598 0.0051863C13.9477 0.0103696 13.9369 0.0181422 13.9282 0.0279558C13.7482 0.357956 13.5382 0.787955 13.3982 1.11796C11.8072 0.877955 10.1892 0.877955 8.59816 1.11796C8.45816 0.777955 8.24816 0.357956 8.05816 0.0279558C8.04816 0.00795575 8.01816 -0.00204446 7.98816 -0.00204446C6.48816 0.257956 5.05816 0.707955 3.71816 1.32796C3.70816 1.32796 3.69816 1.33796 3.68816 1.34796C0.968164 5.41796 0.218164 9.37795 0.588164 13.298C0.588164 13.318 0.598164 13.338 0.618164 13.348C2.41816 14.668 4.14816 15.468 5.85816 15.998C5.88816 16.008 5.91816 15.998 5.92816 15.978C6.32816 15.428 6.68816 14.848 6.99816 14.238C7.01816 14.198 6.99816 14.158 6.95816 14.148C6.38816 13.928 5.84816 13.668 5.31816 13.368C5.27816 13.348 5.27816 13.288 5.30816 13.258C5.41816 13.178 5.52816 13.088 5.63816 13.008C5.65816 12.988 5.68816 12.988 5.70816 12.998C9.14816 14.568 12.8582 14.568 16.2582 12.998C16.2782 12.988 16.3082 12.988 16.3282 13.008C16.4382 13.098 16.5482 13.178 16.6582 13.268C16.6982 13.298 16.6982 13.358 16.6482 13.378C16.1282 13.688 15.5782 13.938 15.0082 14.158C14.9682 14.168 14.9582 14.218 14.9682 14.248C15.2882 14.858 15.6482 15.438 16.0382 15.988C16.0682 15.998 16.0982 16.008 16.1282 15.998C17.8482 15.468 19.5782 14.668 21.3782 13.348C21.3982 13.338 21.4082 13.318 21.4082 13.298C21.8482 8.76795 20.6782 4.83796 18.3082 1.34796C18.2982 1.33796 18.2882 1.32796 18.2682 1.32796ZM7.51816 10.908C6.48816 10.908 5.62816 9.95796 5.62816 8.78796C5.62816 7.61796 6.46816 6.66796 7.51816 6.66796C8.57816 6.66796 9.41816 7.62796 9.40816 8.78796C9.40816 9.95796 8.56816 10.908 7.51816 10.908ZM14.4882 10.908C13.4582 10.908 12.5982 9.95796 12.5982 8.78796C12.5982 7.61796 13.4382 6.66796 14.4882 6.66796C15.5482 6.66796 16.3882 7.62796 16.3782 8.78796C16.3782 9.95796 15.5482 10.908 14.4882 10.908Z" fill="#75798B"/>
</svg>
