<svg width="22" height="16" viewBox="0 0 22 16" fill="none" xmlns="http://www.w3.org/2000/svg">
<path d="M18.3727 1.33443C17.0536 0.702852 15.658 0.254086 14.223 0C14.0442 0.330693 13.8354 0.775477 13.6914 1.12933C12.1441 0.891256 10.6111 0.891256 9.09236 1.12933C8.94841 0.775558 8.73486 0.330693 8.55446 0C7.11801 0.254203 5.7213 0.704112 4.40156 1.33773C1.77539 5.39875 1.06346 9.35879 1.41939 13.2628C3.16124 14.5938 4.84926 15.4025 6.50885 15.9316C6.9213 15.3512 7.28589 14.7367 7.59887 14.0945C7.00301 13.8623 6.42857 13.5763 5.8824 13.2396C6.02613 13.1306 6.16648 13.017 6.30323 12.899C9.61281 14.4831 13.2089 14.4831 16.479 12.899C16.6164 13.0162 16.7567 13.1298 16.8998 13.2396C16.3527 13.5771 15.7772 13.8638 15.1801 14.0962C15.4949 14.741 15.8588 15.3561 16.2702 15.9332C17.9313 15.4041 19.6209 14.5955 21.3628 13.2628C21.7805 8.73712 20.6493 4.81343 18.3727 1.33443ZM8.04979 10.8619C7.05626 10.8619 6.24147 9.91276 6.24147 8.75698C6.24147 7.60121 7.03889 6.65045 8.04979 6.65045C9.06077 6.65045 9.87548 7.59952 9.85811 8.75698C9.85969 9.91276 9.06077 10.8619 8.04979 10.8619ZM14.7324 10.8619C13.7388 10.8619 12.9241 9.91276 12.9241 8.75698C12.9241 7.60121 13.7215 6.65045 14.7324 6.65045C15.7433 6.65045 16.5581 7.59952 16.5407 8.75698C16.5407 9.91276 15.7433 10.8619 14.7324 10.8619Z" fill="#5865F2"/>
</svg>
