<svg width="19" height="14" viewBox="0 0 19 14" fill="none" xmlns="http://www.w3.org/2000/svg">
<g clip-path="url(#clip0_215_1597)">
<path d="M15.7688 1.16763C14.594 0.614995 13.3511 0.222325 12.073 0C11.9138 0.289357 11.7278 0.678543 11.5996 0.988161C10.2216 0.779849 8.85622 0.779849 7.50355 0.988161C7.37535 0.678613 7.18515 0.289357 7.02448 0C5.74515 0.222428 4.5012 0.616098 3.32581 1.17051C0.98688 4.72391 0.352812 8.18894 0.669811 11.6049C2.22115 12.7696 3.72455 13.4771 5.20262 13.9401C5.56995 13.4323 5.89467 12.8946 6.17342 12.3327C5.64272 12.1295 5.13112 11.8792 4.64468 11.5847C4.77269 11.4893 4.89769 11.3899 5.01948 11.2866C7.96708 12.6727 11.1698 12.6727 14.0823 11.2866C14.2046 11.3892 14.3296 11.4886 14.457 11.5847C13.9698 11.88 13.4572 12.1308 12.9255 12.3341C13.2058 12.8984 13.53 13.4366 13.8963 13.9415C15.3758 13.4786 16.8806 12.7711 18.4319 11.6049C18.8039 7.64498 17.7965 4.21175 15.7688 1.16763ZM6.57502 9.50417C5.69015 9.50417 4.96448 8.67367 4.96448 7.66236C4.96448 6.65105 5.67469 5.81914 6.57502 5.81914C7.47542 5.81914 8.20102 6.64958 8.18555 7.66236C8.18695 8.67367 7.47542 9.50417 6.57502 9.50417ZM12.5267 9.50417C11.6418 9.50417 10.9162 8.67367 10.9162 7.66236C10.9162 6.65105 11.6264 5.81914 12.5267 5.81914C13.4271 5.81914 14.1527 6.64958 14.1372 7.66236C14.1372 8.67367 13.4271 9.50417 12.5267 9.50417Z" fill="#75798B"/>
</g>
<defs>
<clipPath id="clip0_215_1597">
<rect width="19" height="14" fill="white"/>
</clipPath>
</defs>
</svg>
