<svg width="24" height="24" viewBox="0 0 24 24" fill="none" xmlns="http://www.w3.org/2000/svg">
<path d="M12 17.5C13.25 17.5 14.3127 17.0627 15.188 16.188C16.0633 15.3133 16.5007 14.2507 16.5 13C16.4993 11.7493 16.062 10.687 15.188 9.813C14.314 8.939 13.2513 8.50133 12 8.5C10.7487 8.49867 9.68633 8.93633 8.813 9.813C7.93967 10.6897 7.502 11.752 7.5 13C7.498 14.248 7.93567 15.3107 8.813 16.188C9.69033 17.0653 10.7527 17.5027 12 17.5ZM12 15.5C11.3 15.5 10.7083 15.2583 10.225 14.775C9.74167 14.2917 9.5 13.7 9.5 13C9.5 12.3 9.74167 11.7083 10.225 11.225C10.7083 10.7417 11.3 10.5 12 10.5C12.7 10.5 13.2917 10.7417 13.775 11.225C14.2583 11.7083 14.5 12.3 14.5 13C14.5 13.7 14.2583 14.2917 13.775 14.775C13.2917 15.2583 12.7 15.5 12 15.5ZM4 21C3.45 21 2.97933 20.8043 2.588 20.413C2.19667 20.0217 2.00067 19.5507 2 19V7C2 6.45 2.196 5.97933 2.588 5.588C2.98 5.19667 3.45067 5.00067 4 5H7.15L8.4 3.65C8.58333 3.45 8.80433 3.29167 9.063 3.175C9.32167 3.05833 9.59233 3 9.875 3H14.125C14.4083 3 14.6793 3.05833 14.938 3.175C15.1967 3.29167 15.4173 3.45 15.6 3.65L16.85 5H20C20.55 5 21.021 5.196 21.413 5.588C21.805 5.98 22.0007 6.45067 22 7V19C22 19.55 21.8043 20.021 21.413 20.413C21.0217 20.805 20.5507 21.0007 20 21H4ZM4 19H20V7H15.95L14.125 5H9.875L8.05 7H4V19Z" fill="white" fill-opacity="0.8"/>
</svg>
