<svg width="16" height="16" viewBox="0 0 16 16" fill="none" xmlns="http://www.w3.org/2000/svg">
<path d="M13.5 5H2.5C2.22386 5 2 5.22386 2 5.5V7.5C2 7.77614 2.22386 8 2.5 8H13.5C13.7761 8 14 7.77614 14 7.5V5.5C14 5.22386 13.7761 5 13.5 5Z" stroke="white" stroke-width="1.5" stroke-linecap="round" stroke-linejoin="round"/>
<path d="M13 8V12.5C13 12.6326 12.9473 12.7598 12.8536 12.8536C12.7598 12.9473 12.6326 13 12.5 13H3.5C3.36739 13 3.24021 12.9473 3.14645 12.8536C3.05268 12.7598 3 12.6326 3 12.5V8" stroke="white" stroke-width="1.5" stroke-linecap="round" stroke-linejoin="round"/>
<path d="M8 5V13" stroke="white" stroke-width="1.5" stroke-linecap="round" stroke-linejoin="round"/>
<path d="M11.0494 1.95067C11.6331 2.53442 11.6675 3.51692 11.0494 4.06442C9.9925 5.00005 8 5.00005 8 5.00005C8 5.00005 8 3.00755 8.9375 1.95067C9.48312 1.33255 10.4656 1.36692 11.0494 1.95067Z" stroke="white" stroke-width="1.5" stroke-linecap="round" stroke-linejoin="round"/>
<path d="M4.95055 1.95067C4.3668 2.53442 4.33243 3.51692 4.95055 4.06442C6.00743 5.00005 7.99993 5.00005 7.99993 5.00005C7.99993 5.00005 7.99993 3.00755 7.06243 1.95067C6.5168 1.33255 5.5343 1.36692 4.95055 1.95067Z" stroke="white" stroke-width="1.5" stroke-linecap="round" stroke-linejoin="round"/>
</svg>
