<svg width="24" height="24" viewBox="0 0 24 24" fill="none" xmlns="http://www.w3.org/2000/svg">
<path d="M12.0009 9.3C11.2848 9.3 10.5981 9.58446 10.0917 10.0908C9.58536 10.5972 9.3009 11.2839 9.3009 12C9.3009 12.7161 9.58536 13.4028 10.0917 13.9092C10.5981 14.4155 11.2848 14.7 12.0009 14.7C12.717 14.7 13.4037 14.4155 13.9101 13.9092C14.4164 13.4028 14.7009 12.7161 14.7009 12C14.7009 11.2839 14.4164 10.5972 13.9101 10.0908C13.4037 9.58446 12.717 9.3 12.0009 9.3ZM12.0009 7.5C13.1944 7.5 14.339 7.97411 15.1829 8.81802C16.0268 9.66193 16.5009 10.8065 16.5009 12C16.5009 13.1935 16.0268 14.3381 15.1829 15.182C14.339 16.0259 13.1944 16.5 12.0009 16.5C10.8074 16.5 9.66283 16.0259 8.81892 15.182C7.97501 14.3381 7.5009 13.1935 7.5009 12C7.5009 10.8065 7.97501 9.66193 8.81892 8.81802C9.66283 7.97411 10.8074 7.5 12.0009 7.5ZM17.8509 7.275C17.8509 7.57337 17.7324 7.85952 17.5214 8.0705C17.3104 8.28147 17.0243 8.4 16.7259 8.4C16.4275 8.4 16.1414 8.28147 15.9304 8.0705C15.7194 7.85952 15.6009 7.57337 15.6009 7.275C15.6009 6.97663 15.7194 6.69048 15.9304 6.4795C16.1414 6.26853 16.4275 6.15 16.7259 6.15C17.0243 6.15 17.3104 6.26853 17.5214 6.4795C17.7324 6.69048 17.8509 6.97663 17.8509 7.275ZM12.0009 4.8C9.7743 4.8 9.4107 4.8063 8.3748 4.8522C7.6692 4.8855 7.1958 4.98 6.7566 5.151C6.38905 5.28594 6.05677 5.50224 5.7846 5.7837C5.50291 6.05586 5.28632 6.38813 5.151 6.7557C4.98 7.1967 4.8855 7.6692 4.8531 8.3739C4.8063 9.3675 4.8 9.7149 4.8 12C4.8 14.2275 4.8063 14.5902 4.8522 15.6261C4.8855 16.3308 4.98 16.8051 5.1501 17.2434C5.3031 17.6349 5.4831 17.9166 5.7819 18.2154C6.0852 18.5178 6.3669 18.6987 6.7539 18.8481C7.1985 19.02 7.6719 19.1154 8.3739 19.1478C9.3675 19.1946 9.7149 19.2 12 19.2C14.2275 19.2 14.5902 19.1937 15.6261 19.1478C16.3299 19.1145 16.8033 19.02 17.2434 18.8499C17.6106 18.7143 17.9428 18.4981 18.2154 18.2172C18.5187 17.9148 18.6996 17.6331 18.849 17.2452C19.02 16.8024 19.1154 16.329 19.1478 15.6252C19.1946 14.6325 19.2 14.2842 19.2 12C19.2 9.7734 19.1937 9.4098 19.1478 8.3739C19.1145 7.6701 19.0191 7.1949 18.849 6.7557C18.7133 6.38852 18.4971 6.05638 18.2163 5.7837C17.9443 5.50186 17.612 5.28525 17.2443 5.1501C16.8033 4.9791 16.3299 4.8846 15.6261 4.8522C14.6334 4.8054 14.286 4.8 12 4.8M12 3C14.4453 3 14.7504 3.009 15.7107 3.054C16.6683 3.099 17.3217 3.2493 17.895 3.4725C18.489 3.7011 18.9894 4.0107 19.4898 4.5102C19.9474 4.96011 20.3016 5.50433 20.5275 6.105C20.7498 6.6783 20.901 7.3317 20.946 8.2902C20.9883 9.2496 21 9.5547 21 12C21 14.4453 20.991 14.7504 20.946 15.7098C20.901 16.6683 20.7498 17.3208 20.5275 17.895C20.3022 18.496 19.948 19.0403 19.4898 19.4898C19.0398 19.9473 18.4956 20.3014 17.895 20.5275C17.3217 20.7498 16.6683 20.901 15.7107 20.946C14.7504 20.9883 14.4453 21 12 21C9.5547 21 9.2496 20.991 8.2893 20.946C7.3317 20.901 6.6792 20.7498 6.105 20.5275C5.50409 20.302 4.95977 19.9478 4.5102 19.4898C4.05249 19.0399 3.69836 18.4957 3.4725 17.895C3.2493 17.3217 3.099 16.6683 3.054 15.7098C3.0108 14.7504 3 14.4453 3 12C3 9.5547 3.009 9.2496 3.054 8.2902C3.099 7.3317 3.2493 6.6792 3.4725 6.105C3.69771 5.50396 4.05192 4.95959 4.5102 4.5102C4.9599 4.05231 5.50419 3.69816 6.105 3.4725C6.6783 3.2493 7.3308 3.099 8.2893 3.054C9.2505 3.0117 9.5556 3 12.0009 3" fill="white"/>
</svg>
