<svg width="16" height="16" viewBox="0 0 16 16" fill="none" xmlns="http://www.w3.org/2000/svg">
<path d="M9.08341 1.20563C9.45732 0.825727 9.90273 0.523606 10.394 0.316688C10.8852 0.10977 11.4125 0.00214915 11.9456 3.18615e-05C12.4786 -0.00208543 13.0068 0.101343 13.4996 0.304352C13.9925 0.50736 14.4403 0.805934 14.8172 1.18285C15.1941 1.55977 15.4927 2.00758 15.6957 2.50045C15.8987 2.99333 16.0021 3.52151 16 4.05456C15.9979 4.5876 15.8902 5.11494 15.6833 5.60619C15.4764 6.09743 15.1743 6.54286 14.7944 6.91677L12.2297 9.48158L11.0319 8.28551L13.5967 5.71986C14.0367 5.28007 14.284 4.68349 14.2841 4.06138C14.2843 3.43926 14.0373 2.84256 13.5975 2.40254C13.1577 1.96252 12.5612 1.71524 11.9391 1.71508C11.317 1.71492 10.7203 1.9619 10.2803 2.40169L7.71471 4.96735L6.51783 3.77044L9.08341 1.20563ZM10.8779 6.31832L6.29437 10.9011L5.09749 9.7042L9.68016 5.12141L10.8779 6.31832ZM4.94428 7.737L2.37954 10.3027C1.93953 10.7427 1.69234 11.3395 1.69234 11.9617C1.69234 12.584 1.93953 13.1808 2.37954 13.6208C2.81954 14.0608 3.41632 14.308 4.03858 14.308C4.66084 14.308 5.25761 14.0608 5.69762 13.6208L8.26236 11.0552L9.45924 12.2521L6.8945 14.8169C6.13717 15.5743 5.10998 15.9999 4.03888 16C2.96778 16.0001 1.94052 15.5747 1.18308 14.8173C0.425648 14.06 7.93811e-05 13.0327 1.11041e-08 11.9616C-7.93589e-05 10.8905 0.425337 9.8632 1.18266 9.10575L3.7474 6.54094L4.94428 7.737Z" fill="#75798B"/>
</svg>
