<svg width="24" height="24" viewBox="0 0 24 24" fill="none" xmlns="http://www.w3.org/2000/svg">
<path d="M14.25 9.75H16.5" stroke="#919195" stroke-width="1.5" stroke-linecap="round" stroke-linejoin="round"/>
<path d="M6.75 9.75H9.75" stroke="#919195" stroke-width="1.5" stroke-linecap="round" stroke-linejoin="round"/>
<path d="M8.25 8.25V11.25" stroke="#919195" stroke-width="1.5" stroke-linecap="round" stroke-linejoin="round"/>
<path d="M9.92903 14.25L5.98121 18.7313C5.58644 19.1258 5.07617 19.3843 4.5245 19.4692C3.97282 19.554 3.40846 19.4608 2.91337 19.2031C2.41828 18.9453 2.01823 18.5365 1.77131 18.0359C1.5244 17.5353 1.44347 16.9691 1.54028 16.4194L3.07403 8.53125C3.27215 7.40377 3.86074 6.38197 4.73664 5.64491C5.61255 4.90785 6.7199 4.50254 7.86465 4.5H16.125C17.4179 4.5 18.6579 5.01361 19.5721 5.92785C20.4863 6.84209 21 8.08207 21 9.375C21 10.6679 20.4863 11.9079 19.5721 12.8221C18.6579 13.7364 17.4179 14.25 16.125 14.25H9.92903Z" stroke="#919195" stroke-width="1.5" stroke-linecap="round" stroke-linejoin="round"/>
<path d="M14.071 14.25L18.0189 18.7313C18.4136 19.1258 18.9239 19.3843 19.4756 19.4692C20.0272 19.554 20.5916 19.4608 21.0867 19.2031C21.5818 18.9453 21.9818 18.5365 22.2288 18.0359C22.4757 17.5353 22.5566 16.9691 22.4598 16.4194L20.926 8.53125" stroke="#919195" stroke-width="1.5" stroke-linecap="round" stroke-linejoin="round"/>
</svg>
