<svg width="24" height="24" viewBox="0 0 24 24" fill="none" xmlns="http://www.w3.org/2000/svg">
<path d="M4 21H20M5.666 13.187C5.23943 13.6142 4.99989 14.1933 5 14.797V18H8.223C8.827 18 9.406 17.76 9.833 17.332L19.333 7.827C19.7597 7.39986 19.9994 6.82078 19.9994 6.217C19.9994 5.61322 19.7597 5.03414 19.333 4.607L18.395 3.667C18.1835 3.45535 17.9323 3.28748 17.6558 3.17297C17.3794 3.05846 17.083 2.99957 16.7838 2.99966C16.4846 2.99976 16.1883 3.05883 15.9119 3.17351C15.6355 3.28819 15.3844 3.45622 15.173 3.668L5.666 13.187Z" stroke="white" stroke-opacity="0.8" stroke-width="1.5" stroke-linecap="round" stroke-linejoin="round"/>
</svg>
