<svg width="16" height="16" viewBox="0 0 16 16" fill="none" xmlns="http://www.w3.org/2000/svg">
<path d="M8 14C11.3137 14 14 11.3137 14 8C14 4.68629 11.3137 2 8 2C4.68629 2 2 4.68629 2 8C2 11.3137 4.68629 14 8 14Z" stroke="white" stroke-width="1.5" stroke-linecap="round" stroke-linejoin="round"/>
<path d="M11.5263 12.8551L10.9413 12.2694C10.8786 12.2065 10.8003 12.1614 10.7144 12.1388L9.37501 11.7869C9.25606 11.7556 9.15282 11.6816 9.08502 11.579C9.01723 11.4764 8.98963 11.3524 9.00751 11.2307L9.15626 10.2182C9.1689 10.1327 9.20346 10.052 9.25659 9.98386C9.30971 9.91572 9.37958 9.86252 9.45939 9.82943L11.3625 9.03818C11.4505 9.00169 11.547 8.99106 11.6408 9.00756C11.7346 9.02406 11.8217 9.06699 11.8919 9.13131L13.4375 10.5444" stroke="white" stroke-width="1.5" stroke-linecap="round" stroke-linejoin="round"/>
<path d="M3.15552 11.5406L3.77552 11.1331C3.84418 11.0878 3.90059 11.0261 3.93973 10.9538C3.97887 10.8814 3.99953 10.8004 3.99989 10.7181L4.01302 8.45375C4.0137 8.35562 4.04302 8.25982 4.09739 8.17813L5.40614 6.22188C5.44367 6.16617 5.49205 6.11859 5.54837 6.08199C5.6047 6.04539 5.66782 6.02051 5.73397 6.00885C5.80012 5.99718 5.86794 5.99896 5.93339 6.01409C5.99884 6.02921 6.06057 6.05737 6.11489 6.09688L7.35302 6.90938C7.45727 6.98447 7.58628 7.01689 7.71364 7L9.67989 6.73375C9.80129 6.71747 9.91249 6.6572 9.99239 6.56437L11.3786 4.95C11.4565 4.85961 11.4996 4.74433 11.4999 4.625V3.125" stroke="white" stroke-width="1.5" stroke-linecap="round" stroke-linejoin="round"/>
</svg>
