<svg width="21" height="16" viewBox="0 0 21 16" fill="none" xmlns="http://www.w3.org/2000/svg">
<path d="M17.7682 1.32785C16.4382 0.707849 14.9982 0.257849 13.4982 -0.00215127C13.485 -0.00257187 13.4719 -0.000103788 13.4598 0.00507949C13.4477 0.0102628 13.4369 0.0180354 13.4282 0.0278489C13.2482 0.357849 13.0382 0.787849 12.8982 1.11785C11.3072 0.877849 9.68916 0.877849 8.09816 1.11785C7.95816 0.777849 7.74816 0.357849 7.55816 0.0278489C7.54816 0.00784894 7.51816 -0.00215127 7.48816 -0.00215127C5.98816 0.257849 4.55816 0.707849 3.21816 1.32785C3.20816 1.32785 3.19816 1.33785 3.18816 1.34785C0.468164 5.41785 -0.281836 9.37785 0.0881641 13.2978C0.0881641 13.3178 0.0981641 13.3378 0.118164 13.3478C1.91816 14.6678 3.64816 15.4678 5.35816 15.9978C5.38816 16.0078 5.41816 15.9978 5.42816 15.9778C5.82816 15.4278 6.18816 14.8478 6.49816 14.2378C6.51816 14.1978 6.49816 14.1578 6.45816 14.1478C5.88816 13.9278 5.34816 13.6678 4.81816 13.3678C4.77816 13.3478 4.77816 13.2878 4.80816 13.2578C4.91816 13.1778 5.02816 13.0878 5.13816 13.0078C5.15816 12.9878 5.18816 12.9878 5.20816 12.9978C8.64816 14.5678 12.3582 14.5678 15.7582 12.9978C15.7782 12.9878 15.8082 12.9878 15.8282 13.0078C15.9382 13.0978 16.0482 13.1778 16.1582 13.2678C16.1982 13.2978 16.1982 13.3578 16.1482 13.3778C15.6282 13.6878 15.0782 13.9378 14.5082 14.1578C14.4682 14.1678 14.4582 14.2178 14.4682 14.2478C14.7882 14.8578 15.1482 15.4378 15.5382 15.9878C15.5682 15.9978 15.5982 16.0078 15.6282 15.9978C17.3482 15.4678 19.0782 14.6678 20.8782 13.3478C20.8982 13.3378 20.9082 13.3178 20.9082 13.2978C21.3482 8.76785 20.1782 4.83785 17.8082 1.34785C17.7982 1.33785 17.7882 1.32785 17.7682 1.32785ZM7.01816 10.9078C5.98816 10.9078 5.12816 9.95785 5.12816 8.78785C5.12816 7.61785 5.96816 6.66785 7.01816 6.66785C8.07817 6.66785 8.91816 7.62785 8.90816 8.78785C8.90816 9.95785 8.06816 10.9078 7.01816 10.9078ZM13.9882 10.9078C12.9582 10.9078 12.0982 9.95785 12.0982 8.78785C12.0982 7.61785 12.9382 6.66785 13.9882 6.66785C15.0482 6.66785 15.8882 7.62785 15.8782 8.78785C15.8782 9.95785 15.0482 10.9078 13.9882 10.9078Z" fill="#75798B"/>
</svg>
