<svg width="20" height="14" viewBox="0 0 20 14" fill="none" xmlns="http://www.w3.org/2000/svg">
<path d="M7.99951 10L13.1895 7L7.99951 4V10ZM19.5595 2.17C19.6895 2.64 19.7795 3.27 19.8395 4.07C19.9095 4.87 19.9395 5.56 19.9395 6.16L19.9995 7C19.9995 9.19 19.8395 10.8 19.5595 11.83C19.3095 12.73 18.7295 13.31 17.8295 13.56C17.3595 13.69 16.4995 13.78 15.1795 13.84C13.8795 13.91 12.6895 13.94 11.5895 13.94L9.99951 14C5.80951 14 3.19951 13.84 2.16951 13.56C1.26951 13.31 0.689512 12.73 0.439512 11.83C0.309512 11.36 0.219512 10.73 0.159512 9.93C0.0895118 9.13 0.0595117 8.44 0.0595117 7.84L-0.000488281 7C-0.000488281 4.81 0.159512 3.2 0.439512 2.17C0.689512 1.27 1.26951 0.69 2.16951 0.44C2.63951 0.31 3.49951 0.22 4.81951 0.16C6.11951 0.0899998 7.30951 0.0599999 8.40951 0.0599999L9.99951 0C14.1895 0 16.7995 0.16 17.8295 0.44C18.7295 0.69 19.3095 1.27 19.5595 2.17Z" fill="#75798B"/>
</svg>
